# xmcd
#
# Track frame offsets: 
#        150
#        11185
#        26410
#        46200
#        58002
#        75665
#        83557
#        100772
#        113990
#        132227
#        145972
#
# Disc length: 2196 seconds
#
# Revision: 1
# Processed by: cddbd v1.5.2PL0 Copyright (c) Steve Scherf et al.
# Submitted via: ExactAudioCopy v0.95b4
#
DISCID=8808920b
DTITLE=Queen Bee and the Blue Honet Band - 1987
DYEAR=1987
DGENRE=Blues
TTITLE0=Guard Your Heart
TTITLE1=Why Get Up
TTITLE2=I'd Rather Go Blind
TTITLE3=Sheriff Rhue
TTITLE4=Too Tall To Mambo
TTITLE5=Ready Teddy
TTITLE6=Shaky Ground
TTITLE7=Someday, Someway
TTITLE8=Fools Fall In Love
TTITLE9=Bloody Mary
TTITLE10=Love Me With A Feeling
EXTD=YEAR: 1987
EXTT0=
EXTT1=
EXTT2=
EXTT3=
EXTT4=
EXTT5=
EXTT6=
EXTT7=
EXTT8=
EXTT9=
EXTT10=
PLAYORDER=
